<?xml version="1.0" encoding="utf-8"?>

<svg xmlns:dc="http://purl.org/dc/elements/1.1/" version="1.1" id="Layer_1" xmlns="http://www.w3.org/2000/svg" xmlns:xlink="http://www.w3.org/1999/xlink" x="0px" y="0px"
	 viewBox="0 0 24 24" style="enable-background:new 0 0 24 24;" xml:space="preserve">
<metadata>
    <dc:creator>Davooda</dc:creator>
    <dc:relation>https://davooda.com</dc:relation>
</metadata>

<style type="text/css">
	.st0{fill:none;stroke:#1E1E1E;stroke-width:2;stroke-linecap:round;stroke-linejoin:round;stroke-miterlimit:10;}
	.st1{fill:none;stroke:#1E1E1E;stroke-width:1.7;stroke-linecap:round;stroke-linejoin:round;stroke-miterlimit:10;}
	.st2{fill:none;stroke:#1E1E1E;stroke-width:1.8;stroke-linecap:round;stroke-linejoin:round;stroke-miterlimit:10;}
	.st3{fill:#1E1E1E;}
	.st4{fill:#FFFFFF;stroke:#1E1E1E;stroke-width:2;stroke-linecap:round;stroke-linejoin:round;stroke-miterlimit:10;}
	.st5{fill:none;stroke:#1E1E1E;stroke-width:1.6;stroke-linecap:round;stroke-linejoin:round;stroke-miterlimit:10;}
	.st6{fill:none;stroke:#010101;stroke-width:2;stroke-linecap:round;stroke-linejoin:round;stroke-miterlimit:10;}
	.st7{fill:#010101;}
	.st8{fill:none;stroke:#010101;stroke-width:1.8;stroke-linecap:round;stroke-linejoin:round;stroke-miterlimit:10;}
</style>
<line class="st0" x1="19" y1="15" x2="19" y2="23"/>
<line class="st0" x1="23" y1="19" x2="15" y2="19"/>
<polyline class="st2" points="18,12 15.9,10.9 12,15 7,16 "/>
<path class="st0" d="M21,11V8c0-1.1-0.9-2-2-2H7.6C6.7,6,6,6.7,6,7.6v9.8C6,18.3,6.7,19,7.6,19h3.5"/>
<circle class="st3" cx="10.2" cy="10.4" r="1.3"/>
<path class="st0" d="M16,3.2l-0.1-0.7c-0.1-0.9-1-1.6-1.9-1.4L2.4,2.8C1.5,2.9,0.9,3.8,1,4.8l1.2,8.3"/>
</svg>
